<?xml version="1.0" encoding="utf-8"?>
<!-- Generator: Adobe Illustrator 24.0.3, SVG Export Plug-In . SVG Version: 6.00 Build 0)  -->
<svg version="1.1" id="Layer_1" xmlns="http://www.w3.org/2000/svg" xmlns:xlink="http://www.w3.org/1999/xlink" x="0px" y="0px"
	 viewBox="0 0 288 82.8" style="enable-background:new 0 0 288 82.8;" xml:space="preserve">
<style type="text/css">
	.st0{fill:#42FFC1;}
	.st1{fill:#6C757D;}
</style>
<g>
	<g>
		<path class="st0" d="M104.9,38.7c-2.9,0-5.5,1.3-7.3,3.4v-2c0-0.5-0.4-1-1-1h-1c-0.5,0-1,0.4-1,1v24.5c0,0.5,0.4,1,1,1h1
			c0.5,0,1-0.4,1-1V50c0-4.7,3.2-8.4,7.2-8.4c4.3,0,6.7,2.9,6.7,8.2v14.8c0,0.5,0.4,1,1,1h1c0.5,0,1-0.4,1-1V49.7
			C114.4,42.9,110.8,38.7,104.9,38.7z"/>
		<path class="st0" d="M85.5,53.8c-1.4-1.1-3.2-2-5.8-3c-4.7-1.9-6.1-3-6.1-4.9v0c0-2.4,2.3-4.1,5.4-4.1c2.2,0,4.4,0.8,6.1,2.3
			c0.2,0.1,0.4,0.2,0.6,0.2c0,0,0.1,0,0.1,0c0.3,0,0.5-0.2,0.6-0.4l0.6-0.8c0.3-0.4,0.2-1-0.2-1.3c-2.4-1.9-5.1-2.9-7.9-2.9
			c-4.9,0-8.4,2.9-8.4,6.9v0.1c0,3.8,2.8,5.6,7.9,7.5c4.2,1.7,6.4,2.8,6.4,5.3v0.1c0,2.5-2.5,4.3-5.7,4.3c-2.6,0-5-1-7.2-2.8
			c-0.2-0.2-0.4-0.2-0.6-0.2c-0.3,0-0.5,0.1-0.7,0.3l-0.7,0.8c-0.2,0.2-0.3,0.4-0.2,0.7s0.1,0.5,0.3,0.7c2.6,2.3,5.8,3.5,9,3.5
			c5.1,0,8.8-3,8.8-7.2v0C87.8,56.7,87,55.1,85.5,53.8z"/>
		<path class="st0" d="M130.7,38.9c-2.6,0-5.1,0.7-7.6,2c-0.5,0.2-0.6,0.8-0.4,1.3l0.4,0.9c0.1,0.2,0.3,0.4,0.6,0.5
			c0.1,0,0.2,0,0.3,0c0.2,0,0.3,0,0.4-0.1c2.2-1.2,4.2-1.7,6.3-1.7c4.4,0,6.7,2.3,6.7,6.7v1.5c-2.1-0.7-4.4-1-6.6-1
			c-6.3,0-10.2,3.4-10.2,8.8v0.1c0,5,3.5,8.3,8.8,8.3c4.1,0,6.6-1.9,8-3.4v1.9c0,0.5,0.4,1,1,1h1c0.5,0,1-0.4,1-1V48.3
			c0-2.9-0.8-5.3-2.4-6.9C136.2,39.7,133.7,38.9,130.7,38.9z M129.4,63.2c-3.6,0-5.8-2.1-5.8-5.5v-0.1c0-3.7,2.7-5.8,7.3-5.8
			c2.3,0,4.4,0.4,6.5,1.2v3C137.3,59.4,134.3,63.2,129.4,63.2z"/>
		<path class="st0" d="M159.1,38.7c-3.3,0-6.3,1.6-8.3,4.4v-2.9c0-0.5-0.4-1-1-1h-1c-0.5,0-1,0.4-1,1v31.7c0,0.5,0.4,1,1,1h1
			c0.5,0,1-0.4,1-1V61.7c2,2.8,5,4.4,8.3,4.4c6.4,0,11.1-5.7,11.1-13.6v-0.2C170.2,44.4,165.6,38.7,159.1,38.7z M159.1,41.6
			c4.8,0,8.2,4.5,8.2,10.8v0.2c0,6.2-3.4,10.7-8.2,10.7c-4.7,0-8.3-4.7-8.3-10.7v-0.2c0-2.9,0.8-5.6,2.4-7.6
			C154.7,42.7,156.8,41.6,159.1,41.6z"/>
	</g>
	<path class="st1" d="M36.9,25.2V10.6c0-0.4,0.3-0.6,0.6-0.6c0.4,0,0.6,0.3,0.6,0.6v14.5c0,0.4-0.3,0.6-0.6,0.6
		C37.2,25.8,36.9,25.5,36.9,25.2z M40.4,26.7c0.2,0,0.4-0.1,0.5-0.2l7-9.1c0.1-0.1,0.1-0.3,0.1-0.5c0-0.2-0.1-0.3-0.2-0.4
		c-0.1-0.1-0.2-0.1-0.4-0.1c-0.2,0-0.4,0.1-0.5,0.2l-7,9.1c-0.2,0.3-0.2,0.7,0.1,0.9C40.1,26.7,40.2,26.7,40.4,26.7z M34.2,26.5
		c0.1,0.2,0.3,0.2,0.5,0.2c0.1,0,0.3,0,0.4-0.1c0.1-0.1,0.2-0.3,0.2-0.4c0-0.2,0-0.3-0.1-0.5l-7-9.1c-0.1-0.2-0.3-0.2-0.5-0.2
		c-0.1,0-0.3,0-0.4,0.1c-0.3,0.2-0.3,0.6-0.1,0.9L34.2,26.5z M54.8,53.8c0.5,1.8-0.1,3.8-1.6,5.1c-5.1,4.3-9.7,7.4-16.6,9.7
		l-4.3,3.9c-0.2,0.2-0.5,0.3-0.9,0.3c0,0,0,0,0,0l0-0.3l-0.1,0.3c0,0-0.1,0-0.1,0c-0.3,0-0.6-0.2-0.8-0.4L18.3,58.9
		c-0.5-0.5-0.4-1.3,0-1.7l3.7-3.8c-1-3.8,0.1-7.6,1-10.9c0.9-3.3,1.7-6.2,0.4-8.3c-0.9-1.4-1.1-2.7-0.7-3.8c0.4-1,1.2-1.6,1.9-1.8
		c0.5-0.2,1-0.3,1.5-0.3c2.8,0,5.4,2.7,6,6.2c0.3,1.6,0.6,5.6,0.8,7.9c3.7-3.4,13.4-12.5,16.2-14.9c1.6-1.4,3.5-2.8,5.7-2.8
		c0.2,0,0.3,0,0.5,0c1.1,0.1,2,0.7,2.4,1.6c1.4,2.8-2,6.1-3.6,7.7c-1.4,1.4-3.8,3.7-5.1,4.9c1.2,0.4,2,1.4,2.3,2.6
		c0.2,1.1,0,2.3-0.5,3.4c1.3,0.3,2.2,1.3,2.5,2.5c0.3,1.2,0,2.6-0.8,3.9C53.6,51.7,54.4,52.6,54.8,53.8z M19.3,58l12.2,13.5l4.4-3.9
		c0.1-0.1,0.1-0.1,0.2-0.1c6.7-2.3,11.2-5.4,16.3-9.6c1.1-0.9,1.6-2.4,1.2-3.7c-0.3-1.1-1.1-1.8-2.1-1.9l-0.1,0
		c-0.2,0-0.4-0.2-0.5-0.4c-0.1-0.2-0.1-0.5,0.1-0.6c1.4-1.7,1.3-3.1,1.1-3.6c-0.2-0.9-1-1.6-2-1.7c-0.1,0-0.2,0-0.3,0
		c-0.2,0-0.5-0.1-0.6-0.4c-0.1-0.2-0.1-0.5,0.1-0.7c0.8-1,1.1-2.2,0.9-3.2c-0.2-1-1-1.7-2.1-1.9c-0.1,0-0.2,0-0.4,0
		c-0.3,0-0.5-0.2-0.6-0.4c-0.1-0.2,0-0.5,0.2-0.7c0,0,4.1-3.9,6-5.8c1.4-1.4,4.3-4.3,3.3-6.3c-0.2-0.5-0.8-0.8-1.4-0.8
		c-0.1,0-0.2,0-0.4,0c-1.7,0-3.4,1.3-4.8,2.5c-3.3,2.8-17,15.6-17.1,15.8c-0.1,0.1-0.3,0.2-0.4,0.2c-0.1,0-0.2,0-0.2,0
		c-0.2-0.1-0.4-0.3-0.4-0.5c-0.1-1.2-0.5-7.1-0.9-9.1c-0.5-2.9-2.5-5.2-4.7-5.2c-0.4,0-0.7,0.1-1.1,0.2c-0.4,0.1-0.9,0.5-1.1,1.1
		c-0.3,0.7,0,1.6,0.6,2.7c1.6,2.6,0.7,5.9-0.3,9.3c-0.9,3.3-1.9,7-0.9,10.6c0.1,0.2,0,0.5-0.2,0.6L19.3,58z"/>
	<g>
		<path class="st1" d="M270,64.9c-0.1,0.1-0.2,0.2-0.4,0.2h-1.2c-0.1,0-0.3-0.1-0.3-0.2l-9.2-12.7l-4.6,5.3v7.1
			c0,0.2-0.2,0.4-0.4,0.4h-1c-0.2,0-0.4-0.2-0.4-0.4V29.9c0-0.2,0.2-0.4,0.4-0.4h1c0.2,0,0.4,0.2,0.4,0.4v25l13.1-15
			c0.1-0.1,0.2-0.1,0.3-0.1h1.3c0.2,0,0.3,0.1,0.4,0.2c0.1,0.2,0,0.3-0.1,0.5L260,50.9l9.9,13.6C270,64.6,270,64.8,270,64.9z"/>
		<path class="st1" d="M243.9,54.2c-1.3-1.1-3.1-1.9-5.7-3c-4.4-1.8-6.4-3-6.4-5.4v0c0-2.7,2.5-4.6,5.9-4.6c2.3,0,4.6,0.9,6.5,2.4
			c0.1,0.1,0.2,0.1,0.3,0.1c0,0,0,0,0,0c0.1,0,0.2-0.1,0.3-0.2l0.6-0.8c0.1-0.2,0.1-0.4-0.1-0.6c-2.3-1.8-4.9-2.7-7.6-2.7
			c-4.6,0-7.9,2.7-7.9,6.4v0.1c0,3.5,2.5,5.1,7.5,7c4.3,1.8,6.7,2.9,6.7,5.8v0.1c0,2.8-2.7,4.8-6.3,4.8c-2.7,0-5.3-1-7.5-3
			c-0.1-0.1-0.2-0.1-0.3-0.1c-0.1,0-0.2,0-0.3,0.1l-0.7,0.8c-0.2,0.2-0.1,0.4,0,0.6c2.5,2.2,5.6,3.4,8.7,3.4c4.8,0,8.3-2.8,8.3-6.7
			v0C246,56.8,245.3,55.4,243.9,54.2z"/>
		<path class="st1" d="M196.9,29.4h-1c-0.2,0-0.4,0.2-0.4,0.4V45c-1.6-3.1-4.6-5.7-8.8-5.7c-6,0-10.6,5.6-10.6,13v0.2
			c0,7.4,4.6,13,10.6,13c4.2,0,7.3-2.6,8.8-5.7v4.8c0,0.2,0.2,0.4,0.4,0.4h1c0.2,0,0.4-0.2,0.4-0.4V29.8
			C197.3,29.6,197.1,29.4,196.9,29.4z M195.5,52.5c0,3-0.9,5.9-2.5,8c-1.6,2.1-3.9,3.3-6.3,3.3c-5.1,0-8.7-4.7-8.7-11.2v-0.2
			c0-6.6,3.6-11.2,8.7-11.2c5,0,8.8,4.9,8.8,11.2V52.5z"/>
		<path class="st1" d="M221.3,43.2c-1.8-2.6-4.3-4-7.4-4c-6,0-10.3,5.5-10.3,13.1v0.1c0,7.7,4.5,13,10.9,13c3.2,0,6.3-1.5,8.5-4.2
			c0.1-0.2,0.1-0.4-0.1-0.6l-0.7-0.6c-0.1-0.1-0.2-0.1-0.3-0.1c0,0,0,0,0,0c-0.1,0-0.2,0.1-0.3,0.1c-1.9,2.2-4.4,3.5-7,3.5
			c-5.1,0-8.7-4.3-9-10.6h17.8c0.2,0,0.4-0.2,0.4-0.4v-0.5C223.8,48.8,222.9,45.6,221.3,43.2z M205.6,51.3
			c0.4-6.1,3.8-10.3,8.3-10.3c3.6,0,7.6,3.2,7.9,10.3H205.6z"/>
	</g>
</g>
</svg>
