<?xml version="1.0" encoding="utf-8"?>
<!-- Generator: Adobe Illustrator 24.0.3, SVG Export Plug-In . SVG Version: 6.00 Build 0)  -->
<svg version="1.1" id="Layer_1" xmlns="http://www.w3.org/2000/svg" xmlns:xlink="http://www.w3.org/1999/xlink" x="0px" y="0px"
	 viewBox="0 0 288 108" style="enable-background:new 0 0 288 108;" xml:space="preserve">
<style type="text/css">
	.st0{fill:#FFFFFF;}
	.st1{fill:#42FFC1;}
	.st2{fill:#6C757D;}
</style>
<g>
	<path class="st0" d="M149.8,95.4c-36.7,7.4-78.9-6.6-107.8-29.1c-10.6-8.3-20.5-18.8-23.4-32c-1.1-5.3-0.9-11.3,2.2-15.7
		c2.8-3.9,7.4-6.1,12.1-7.1c10.8-2.3,22.1,0.7,32.1,5.3C76.5,22,86.9,29.3,98.5,34.2c17.9,7.6,32-2.5,49.2-6
		c12.5-2.5,26.9,0.9,34.5,11.1c15.1,20.1-1.7,45-21.5,52.9C157.2,93.6,153.5,94.6,149.8,95.4z"/>
	<g>
		<g>
			<path class="st1" d="M107,46.4c-2.9,0-5.5,1.2-7.2,3.4v-2c0-0.5-0.4-0.9-0.9-0.9h-1c-0.5,0-0.9,0.4-0.9,0.9V72
				c0,0.5,0.4,0.9,0.9,0.9h1c0.5,0,0.9-0.4,0.9-0.9V57.6c0-4.6,3.1-8.3,7.1-8.3c4.3,0,6.6,2.9,6.6,8.1V72c0,0.5,0.4,0.9,0.9,0.9h1
				c0.5,0,0.9-0.4,0.9-0.9V57.3C116.4,50.6,112.8,46.4,107,46.4z"/>
			<path class="st1" d="M87.9,61.3c-1.3-1.1-3.2-2-5.7-3c-4.7-1.9-6-3-6-4.9v0c0-2.3,2.2-4,5.3-4c2.1,0,4.3,0.8,6.1,2.3
				c0.2,0.1,0.4,0.2,0.6,0.2c0,0,0.1,0,0.1,0c0.3,0,0.5-0.2,0.6-0.4l0.6-0.8c0.3-0.4,0.2-1-0.2-1.3c-2.4-1.8-5.1-2.8-7.8-2.8
				c-4.8,0-8.3,2.9-8.3,6.8v0.1c0,3.7,2.7,5.5,7.8,7.4c4.1,1.7,6.3,2.7,6.3,5.3v0.1c0,2.4-2.4,4.2-5.7,4.2c-2.6,0-4.9-0.9-7.1-2.8
				c-0.2-0.1-0.4-0.2-0.6-0.2c-0.3,0-0.5,0.1-0.7,0.3l-0.7,0.8c-0.2,0.2-0.2,0.4-0.2,0.7s0.1,0.5,0.3,0.6c2.6,2.2,5.7,3.5,8.9,3.5
				c5,0,8.7-3,8.7-7.1v0C90.1,64.1,89.4,62.6,87.9,61.3z"/>
			<path class="st1" d="M132.5,46.6c-2.5,0-5,0.7-7.5,2c-0.5,0.2-0.6,0.8-0.4,1.2l0.4,0.9c0.1,0.2,0.3,0.4,0.6,0.5
				c0.1,0,0.2,0,0.3,0c0.2,0,0.3,0,0.4-0.1c2.2-1.2,4.2-1.7,6.2-1.7c4.3,0,6.6,2.3,6.6,6.6v1.5c-2.1-0.7-4.3-1-6.5-1
				c-6.2,0-10.1,3.3-10.1,8.6v0.1c0,4.9,3.5,8.2,8.6,8.2c4.1,0,6.6-1.8,7.9-3.3V72c0,0.5,0.4,0.9,0.9,0.9h1c0.5,0,0.9-0.4,0.9-0.9
				V55.9c0-2.9-0.8-5.2-2.4-6.8C137.9,47.5,135.5,46.6,132.5,46.6z M131.2,70.6c-3.6,0-5.8-2.1-5.8-5.4v-0.1c0-3.7,2.6-5.8,7.2-5.8
				c2.3,0,4.4,0.4,6.4,1.2v3C139,66.9,136,70.6,131.2,70.6z"/>
			<path class="st1" d="M160.6,46.4c-3.3,0-6.2,1.6-8.2,4.3v-2.9c0-0.5-0.4-0.9-0.9-0.9h-1c-0.5,0-0.9,0.4-0.9,0.9v31.3
				c0,0.5,0.4,0.9,0.9,0.9h1c0.5,0,0.9-0.4,0.9-0.9v-10c2,2.7,4.9,4.3,8.2,4.3c6.4,0,11-5.6,11-13.4v-0.2
				C171.5,52.1,166.9,46.4,160.6,46.4z M160.5,49.3c4.7,0,8.1,4.5,8.1,10.6v0.2c0,6.1-3.4,10.5-8.1,10.5c-4.6,0-8.2-4.6-8.2-10.6
				v-0.2c0-2.9,0.8-5.5,2.4-7.5C156.2,50.3,158.3,49.3,160.5,49.3z"/>
		</g>
		<path class="st2" d="M39.9,33V18.7c0-0.3,0.3-0.6,0.6-0.6c0.3,0,0.6,0.3,0.6,0.6V33c0,0.3-0.3,0.6-0.6,0.6
			C40.2,33.7,39.9,33.4,39.9,33z M43.4,34.6c0.2,0,0.4-0.1,0.5-0.2l6.9-9c0.1-0.1,0.1-0.3,0.1-0.5s-0.1-0.3-0.2-0.4
			c-0.1-0.1-0.2-0.1-0.4-0.1c-0.2,0-0.4,0.1-0.5,0.2l-6.9,9c-0.2,0.3-0.2,0.7,0.1,0.9C43.1,34.5,43.2,34.6,43.4,34.6z M37.2,34.3
			c0.1,0.2,0.3,0.2,0.5,0.2c0.1,0,0.3,0,0.4-0.1c0.1-0.1,0.2-0.3,0.2-0.4c0-0.2,0-0.3-0.1-0.5l-6.9-9c-0.1-0.2-0.3-0.2-0.5-0.2
			c-0.1,0-0.3,0-0.4,0.1c-0.3,0.2-0.3,0.6-0.1,0.9L37.2,34.3z M57.5,61.4c0.5,1.8-0.1,3.7-1.6,5c-5.1,4.2-9.6,7.3-16.3,9.6l-4.2,3.8
			c-0.2,0.2-0.5,0.3-0.8,0.3c0,0,0,0,0,0l0-0.3l-0.1,0.3c0,0-0.1,0-0.1,0c-0.3,0-0.6-0.2-0.8-0.4l-12-13.3c-0.4-0.5-0.4-1.2,0-1.7
			l3.7-3.7c-1-3.8,0.1-7.5,1-10.8c0.9-3.3,1.7-6.1,0.4-8.2c-0.9-1.4-1.1-2.7-0.7-3.8c0.3-1,1.2-1.6,1.8-1.8c0.5-0.2,1-0.3,1.5-0.3
			c2.8,0,5.3,2.6,5.9,6.1c0.3,1.6,0.6,5.6,0.8,7.8c3.6-3.4,13.2-12.4,16-14.7c1.6-1.4,3.5-2.8,5.6-2.8c0.2,0,0.3,0,0.5,0
			c1.1,0.1,2,0.7,2.4,1.5c1.3,2.8-1.9,6.1-3.5,7.6c-1.3,1.3-3.7,3.6-5,4.9c1.2,0.4,2,1.4,2.3,2.6c0.2,1,0,2.2-0.5,3.3
			c1.3,0.3,2.2,1.3,2.5,2.5c0.3,1.2,0,2.6-0.8,3.9C56.4,59.2,57.2,60.2,57.5,61.4z M22.5,65.5l12,13.3l4.3-3.9
			c0.1-0.1,0.1-0.1,0.2-0.1c6.7-2.3,11.1-5.3,16.1-9.4c1.1-0.9,1.6-2.4,1.2-3.7c-0.3-1-1.1-1.8-2.1-1.9l-0.1,0
			c-0.2,0-0.4-0.2-0.5-0.4c-0.1-0.2-0.1-0.5,0.1-0.6c1.4-1.7,1.2-3.1,1.1-3.6c-0.2-0.9-1-1.6-2-1.7c-0.1,0-0.2,0-0.3,0
			c-0.2,0-0.5-0.1-0.6-0.4c-0.1-0.2-0.1-0.5,0.1-0.7c0.8-1,1.1-2.2,0.8-3.1c-0.2-1-1-1.7-2.1-1.8c-0.1,0-0.2,0-0.4,0
			c-0.3,0-0.5-0.2-0.6-0.4c-0.1-0.2,0-0.5,0.2-0.7c0,0,4-3.8,5.9-5.7c1.4-1.4,4.2-4.2,3.3-6.2c-0.2-0.5-0.8-0.8-1.4-0.8
			c-0.1,0-0.2,0-0.3,0c-1.7,0-3.3,1.2-4.8,2.5C49.5,39,36,51.6,35.9,51.7c-0.1,0.1-0.3,0.2-0.4,0.2c-0.1,0-0.2,0-0.2,0
			c-0.2-0.1-0.4-0.3-0.4-0.5c-0.1-1.2-0.5-7-0.9-9c-0.5-2.9-2.5-5.1-4.7-5.1c-0.4,0-0.7,0.1-1.1,0.2c-0.4,0.1-0.9,0.5-1.1,1
			c-0.3,0.7,0,1.6,0.6,2.7c1.6,2.6,0.7,5.8-0.3,9.2c-0.9,3.3-1.9,6.9-0.9,10.5c0.1,0.2,0,0.5-0.2,0.6L22.5,65.5z"/>
		<g>
			<path class="st2" d="M270,72.3c-0.1,0.1-0.2,0.2-0.4,0.2h-1.2c-0.1,0-0.3-0.1-0.3-0.2L259,59.8l-4.5,5.2v7c0,0.2-0.2,0.4-0.4,0.4
				h-1c-0.2,0-0.4-0.2-0.4-0.4V37.8c0-0.2,0.2-0.4,0.4-0.4h1c0.2,0,0.4,0.2,0.4,0.4v24.7l12.9-14.8c0.1-0.1,0.2-0.1,0.3-0.1h1.2
				c0.2,0,0.3,0.1,0.4,0.2c0.1,0.1,0,0.3-0.1,0.4l-9.1,10.3l9.7,13.4C270,72,270,72.2,270,72.3z"/>
			<path class="st2" d="M244.2,61.7c-1.3-1.1-3.1-1.9-5.6-2.9c-4.4-1.8-6.4-3-6.4-5.4v0c0-2.6,2.5-4.5,5.9-4.5
				c2.3,0,4.5,0.8,6.4,2.4c0.1,0.1,0.2,0.1,0.3,0.1c0,0,0,0,0,0c0.1,0,0.2-0.1,0.3-0.2l0.6-0.8c0.1-0.2,0.1-0.4-0.1-0.6
				c-2.3-1.8-4.9-2.7-7.5-2.7c-4.5,0-7.8,2.7-7.8,6.3v0.1c0,3.4,2.5,5,7.4,6.9c4.2,1.8,6.6,2.9,6.6,5.8v0.1c0,2.7-2.7,4.8-6.2,4.8
				c-2.7,0-5.2-1-7.4-2.9c-0.1-0.1-0.2-0.1-0.3-0.1c-0.1,0-0.2,0-0.3,0.1l-0.7,0.8c-0.2,0.2-0.1,0.4,0,0.6c2.5,2.2,5.5,3.3,8.5,3.3
				c4.7,0,8.2-2.8,8.2-6.6v0C246.3,64.3,245.7,62.9,244.2,61.7z"/>
			<path class="st2" d="M197.8,37.3h-1c-0.2,0-0.4,0.2-0.4,0.4v15c-1.5-3.1-4.6-5.7-8.7-5.7c-6,0-10.5,5.5-10.5,12.9V60
				c0,7.3,4.5,12.9,10.5,12.9c4.2,0,7.2-2.6,8.7-5.6V72c0,0.2,0.2,0.4,0.4,0.4h1c0.2,0,0.4-0.2,0.4-0.4V37.7
				C198.2,37.4,198.1,37.3,197.8,37.3z M196.5,60c0,3-0.9,5.8-2.5,7.9c-1.6,2.1-3.8,3.2-6.3,3.2c-5,0-8.6-4.7-8.6-11.1v-0.2
				c0-6.5,3.5-11.1,8.6-11.1c4.9,0,8.7,4.9,8.7,11.1V60z"/>
			<path class="st2" d="M221.9,50.9c-1.8-2.6-4.3-3.9-7.3-3.9c-5.9,0-10.2,5.4-10.2,12.9V60c0,7.6,4.4,12.9,10.7,12.9
				c3.2,0,6.2-1.5,8.4-4.1c0.1-0.2,0.1-0.4-0.1-0.6l-0.7-0.6c-0.1-0.1-0.2-0.1-0.3-0.1c0,0,0,0,0,0c-0.1,0-0.2,0.1-0.3,0.1
				c-1.9,2.2-4.4,3.5-7,3.5c-5,0-8.6-4.3-8.9-10.4h17.5c0.2,0,0.4-0.2,0.4-0.4v-0.5C224.4,56.3,223.5,53.2,221.9,50.9z M206.4,58.9
				c0.4-6,3.7-10.2,8.2-10.2c3.6,0,7.5,3.2,7.8,10.2H206.4z"/>
		</g>
	</g>
</g>
</svg>
