<?xml version="1.0" encoding="utf-8"?>
<!-- Generator: Adobe Illustrator 24.0.3, SVG Export Plug-In . SVG Version: 6.00 Build 0)  -->
<svg version="1.1" id="Layer_1" xmlns="http://www.w3.org/2000/svg" xmlns:xlink="http://www.w3.org/1999/xlink" x="0px" y="0px"
	 viewBox="0 0 288 86.4" style="enable-background:new 0 0 288 86.4;" xml:space="preserve">
<style type="text/css">
	.st0{fill:#FFFFFF;}
	.st1{fill:#6C757D;}
	.st2{fill:#42FFC1;}
</style>
<g>
	<path class="st0" d="M29,12.8c5.7-3.7,13.4-3.5,19.2,0.1c3.4,2.2,6.1,5.5,7.4,9.3c1.8,5.1-0.6,9.8-6.2,10.7c-2.6,0.4-5.3,0-7.8-0.8
		c-2.3-0.8-4.6-2-7.1-1.5c-4.4,0.8-8.7,9.6-13.6,6.3c-4-2.7-1.8-9.3-0.5-12.5C22.1,19.9,24.7,15.5,29,12.8z"/>
	<g>
		<path class="st1" d="M269.8,67.3c-0.1,0.1-0.2,0.2-0.4,0.2h-1.2c-0.1,0-0.3-0.1-0.3-0.2l-9.2-12.7l-4.6,5.3v7.1
			c0,0.2-0.2,0.4-0.4,0.4h-1c-0.2,0-0.4-0.2-0.4-0.4V32.3c0-0.2,0.2-0.4,0.4-0.4h1c0.2,0,0.4,0.2,0.4,0.4v25l13.1-15
			c0.1-0.1,0.2-0.1,0.3-0.1h1.3c0.2,0,0.3,0.1,0.4,0.2c0.1,0.2,0,0.3-0.1,0.5l-9.2,10.4l9.9,13.6C269.8,66.9,269.9,67.1,269.8,67.3z
			"/>
		<path class="st1" d="M243.7,56.5c-1.3-1.1-3.1-1.9-5.7-3c-4.4-1.8-6.4-3-6.4-5.4v0c0-2.7,2.5-4.6,5.9-4.6c2.3,0,4.6,0.9,6.5,2.4
			c0.1,0.1,0.2,0.1,0.3,0.1c0,0,0,0,0,0c0.1,0,0.2-0.1,0.3-0.2l0.6-0.8c0.1-0.2,0.1-0.4-0.1-0.6c-2.3-1.8-4.9-2.7-7.6-2.7
			c-4.6,0-7.9,2.7-7.9,6.4v0.1c0,3.5,2.5,5.1,7.5,7c4.3,1.8,6.7,2.9,6.7,5.8v0.1c0,2.8-2.7,4.8-6.3,4.8c-2.7,0-5.3-1-7.5-3
			c-0.1-0.1-0.2-0.1-0.3-0.1c-0.1,0-0.2,0-0.3,0.1l-0.7,0.8c-0.2,0.2-0.1,0.4,0,0.6c2.5,2.2,5.6,3.4,8.7,3.4c4.8,0,8.3-2.8,8.3-6.7
			v0C245.8,59.2,245.2,57.7,243.7,56.5z"/>
		<path class="st1" d="M196.7,31.8h-1c-0.2,0-0.4,0.2-0.4,0.4v15.2c-1.6-3.1-4.6-5.7-8.8-5.7c-6,0-10.6,5.6-10.6,13v0.2
			c0,7.4,4.6,13,10.6,13c4.2,0,7.3-2.6,8.8-5.7V67c0,0.2,0.2,0.4,0.4,0.4h1c0.2,0,0.4-0.2,0.4-0.4V32.2
			C197.1,31.9,196.9,31.8,196.7,31.8z M195.3,54.8c0,3-0.9,5.9-2.5,8c-1.6,2.1-3.9,3.3-6.3,3.3c-5.1,0-8.7-4.7-8.7-11.2v-0.2
			c0-6.6,3.6-11.2,8.7-11.2c5,0,8.8,4.9,8.8,11.2V54.8z"/>
		<path class="st1" d="M221.1,45.6c-1.8-2.6-4.3-4-7.4-4c-6,0-10.3,5.5-10.3,13.1v0.1c0,7.7,4.5,13,10.9,13c3.2,0,6.3-1.5,8.5-4.2
			c0.1-0.2,0.1-0.4-0.1-0.6l-0.7-0.6c-0.1-0.1-0.2-0.1-0.3-0.1c0,0,0,0,0,0c-0.1,0-0.2,0.1-0.3,0.1c-1.9,2.2-4.4,3.5-7,3.5
			c-5.1,0-8.7-4.3-9-10.6h17.8c0.2,0,0.4-0.2,0.4-0.4v-0.5C223.6,51.1,222.7,47.9,221.1,45.6z M205.4,53.7
			c0.4-6.1,3.8-10.3,8.3-10.3c3.6,0,7.6,3.2,7.9,10.3H205.4z"/>
	</g>
	<g>
		<path class="st2" d="M104.7,41.1c-2.9,0-5.5,1.3-7.3,3.4v-2c0-0.5-0.4-1-1-1h-1c-0.5,0-1,0.4-1,1V67c0,0.5,0.4,1,1,1h1
			c0.5,0,1-0.4,1-1V52.3c0-4.7,3.2-8.4,7.2-8.4c4.3,0,6.7,2.9,6.7,8.2V67c0,0.5,0.4,1,1,1h1c0.5,0,1-0.4,1-1V52.1
			C114.2,45.3,110.6,41.1,104.7,41.1z"/>
		<path class="st2" d="M85.3,56.1c-1.4-1.1-3.2-2-5.8-3c-4.7-1.9-6.1-3-6.1-4.9v0c0-2.4,2.3-4.1,5.4-4.1c2.2,0,4.4,0.8,6.1,2.3
			c0.2,0.1,0.4,0.2,0.6,0.2c0,0,0.1,0,0.1,0c0.3,0,0.5-0.2,0.6-0.4l0.6-0.8c0.3-0.4,0.2-1-0.2-1.3c-2.4-1.9-5.1-2.9-7.9-2.9
			c-4.9,0-8.4,2.9-8.4,6.9v0.1c0,3.8,2.8,5.6,7.9,7.5c4.2,1.7,6.4,2.8,6.4,5.3v0.1c0,2.5-2.5,4.3-5.7,4.3c-2.6,0-5-1-7.2-2.8
			c-0.2-0.2-0.4-0.2-0.6-0.2c-0.3,0-0.5,0.1-0.7,0.3l-0.7,0.8c-0.2,0.2-0.3,0.4-0.2,0.7c0,0.3,0.1,0.5,0.3,0.7
			c2.6,2.3,5.8,3.5,9,3.5c5.1,0,8.8-3,8.8-7.2v0C87.6,59,86.9,57.4,85.3,56.1z"/>
		<path class="st2" d="M130.5,41.2c-2.6,0-5.1,0.7-7.6,2c-0.5,0.2-0.6,0.8-0.4,1.3l0.4,0.9c0.1,0.2,0.3,0.4,0.6,0.5
			c0.1,0,0.2,0,0.3,0c0.2,0,0.3,0,0.4-0.1c2.2-1.2,4.2-1.7,6.3-1.7c4.4,0,6.7,2.3,6.7,6.7v1.5c-2.1-0.7-4.4-1-6.6-1
			c-6.3,0-10.2,3.4-10.2,8.8v0.1c0,5,3.5,8.3,8.8,8.3c4.1,0,6.6-1.9,8-3.4V67c0,0.5,0.4,1,1,1h1c0.5,0,1-0.4,1-1V50.6
			c0-2.9-0.8-5.3-2.4-6.9C136,42.1,133.5,41.2,130.5,41.2z M129.2,65.5c-3.6,0-5.8-2.1-5.8-5.5v-0.1c0-3.7,2.7-5.8,7.3-5.8
			c2.3,0,4.4,0.4,6.5,1.2v3C137.1,61.8,134.1,65.5,129.2,65.5z"/>
		<path class="st2" d="M159,41.1c-3.3,0-6.3,1.6-8.3,4.4v-2.9c0-0.5-0.4-1-1-1h-1c-0.5,0-1,0.4-1,1v31.7c0,0.5,0.4,1,1,1h1
			c0.5,0,1-0.4,1-1V64c2,2.8,5,4.4,8.3,4.4c6.4,0,11.1-5.7,11.1-13.6v-0.2C170.1,46.8,165.4,41.1,159,41.1z M158.9,43.9
			c4.8,0,8.2,4.5,8.2,10.8v0.2c0,6.2-3.4,10.7-8.2,10.7c-4.7,0-8.3-4.7-8.3-10.7v-0.2c0-2.9,0.8-5.6,2.4-7.6
			C154.5,45,156.6,43.9,158.9,43.9z"/>
	</g>
	<path class="st1" d="M36.7,27.5V13c0-0.4,0.3-0.6,0.6-0.6c0.4,0,0.6,0.3,0.6,0.6v14.5c0,0.4-0.3,0.6-0.6,0.6
		C37,28.1,36.7,27.8,36.7,27.5z M40.2,29c0.2,0,0.4-0.1,0.5-0.2l7-9.1c0.1-0.1,0.1-0.3,0.1-0.5c0-0.2-0.1-0.3-0.2-0.4
		c-0.1-0.1-0.2-0.1-0.4-0.1c-0.2,0-0.4,0.1-0.5,0.2l-7,9.1c-0.2,0.3-0.2,0.7,0.1,0.9C39.9,29,40.1,29,40.2,29z M34,28.8
		c0.1,0.2,0.3,0.2,0.5,0.2c0.1,0,0.3,0,0.4-0.1c0.1-0.1,0.2-0.3,0.2-0.4c0-0.2,0-0.3-0.1-0.5l-7-9.1c-0.1-0.2-0.3-0.2-0.5-0.2
		c-0.1,0-0.3,0-0.4,0.1c-0.3,0.2-0.3,0.6-0.1,0.9L34,28.8z M54.6,56.2c0.5,1.8-0.1,3.8-1.6,5.1c-5.1,4.3-9.7,7.4-16.6,9.7l-4.3,3.9
		c-0.2,0.2-0.5,0.3-0.9,0.3c0,0,0,0,0,0l0-0.3l-0.1,0.3c0,0-0.1,0-0.1,0c-0.3,0-0.6-0.2-0.8-0.4L18.2,61.2c-0.5-0.5-0.4-1.3,0-1.7
		l3.7-3.8c-1-3.8,0.1-7.6,1-10.9c0.9-3.3,1.7-6.2,0.4-8.3c-0.9-1.4-1.1-2.7-0.7-3.8c0.4-1,1.2-1.6,1.9-1.8c0.5-0.2,1-0.3,1.5-0.3
		c2.8,0,5.4,2.7,6,6.2c0.3,1.6,0.6,5.6,0.8,7.9c3.7-3.4,13.4-12.5,16.2-14.9c1.6-1.4,3.5-2.8,5.7-2.8c0.2,0,0.3,0,0.5,0
		c1.1,0.1,2,0.7,2.4,1.6c1.4,2.8-2,6.1-3.6,7.7c-1.4,1.4-3.8,3.7-5.1,4.9c1.2,0.4,2,1.4,2.3,2.6c0.2,1.1,0,2.3-0.5,3.4
		c1.3,0.3,2.2,1.3,2.5,2.5c0.3,1.2,0,2.6-0.8,3.9C53.4,54,54.2,55,54.6,56.2z M19.1,60.4l12.2,13.5l4.4-3.9c0.1-0.1,0.1-0.1,0.2-0.1
		c6.7-2.3,11.2-5.4,16.3-9.6c1.1-0.9,1.6-2.4,1.2-3.7c-0.3-1.1-1.1-1.8-2.1-1.9l-0.1,0c-0.2,0-0.4-0.2-0.5-0.4
		c-0.1-0.2-0.1-0.5,0.1-0.6c1.4-1.7,1.3-3.1,1.1-3.6c-0.2-0.9-1-1.6-2-1.7c-0.1,0-0.2,0-0.3,0c-0.2,0-0.5-0.1-0.6-0.4
		c-0.1-0.2-0.1-0.5,0.1-0.7c0.8-1,1.1-2.2,0.9-3.2c-0.2-1-1-1.7-2.1-1.9c-0.1,0-0.2,0-0.4,0c-0.3,0-0.5-0.2-0.6-0.4
		c-0.1-0.2,0-0.5,0.2-0.7c0,0,4.1-3.9,6-5.8c1.4-1.4,4.3-4.3,3.3-6.3c-0.2-0.5-0.8-0.8-1.4-0.8c-0.1,0-0.2,0-0.4,0
		c-1.7,0-3.4,1.3-4.8,2.5c-3.3,2.8-17,15.6-17.1,15.8c-0.1,0.1-0.3,0.2-0.4,0.2c-0.1,0-0.2,0-0.2,0c-0.2-0.1-0.4-0.3-0.4-0.5
		c-0.1-1.2-0.5-7.1-0.9-9.1c-0.5-2.9-2.5-5.2-4.7-5.2c-0.4,0-0.7,0.1-1.1,0.2c-0.4,0.1-0.9,0.5-1.1,1.1c-0.3,0.7,0,1.6,0.6,2.7
		c1.6,2.6,0.7,5.9-0.3,9.3c-0.9,3.3-1.9,7-0.9,10.6c0.1,0.2,0,0.5-0.2,0.6L19.1,60.4z"/>
	<g>
		<path class="st1" d="M269.8,67.3c-0.1,0.1-0.2,0.2-0.4,0.2h-1.2c-0.1,0-0.3-0.1-0.3-0.2l-9.2-12.7l-4.6,5.3v7.1
			c0,0.2-0.2,0.4-0.4,0.4h-1c-0.2,0-0.4-0.2-0.4-0.4V32.3c0-0.2,0.2-0.4,0.4-0.4h1c0.2,0,0.4,0.2,0.4,0.4v25l13.1-15
			c0.1-0.1,0.2-0.1,0.3-0.1h1.3c0.2,0,0.3,0.1,0.4,0.2c0.1,0.2,0,0.3-0.1,0.5l-9.2,10.4l9.9,13.6C269.8,66.9,269.9,67.1,269.8,67.3z
			"/>
		<path class="st1" d="M243.7,56.5c-1.3-1.1-3.1-1.9-5.7-3c-4.4-1.8-6.4-3-6.4-5.4v0c0-2.7,2.5-4.6,5.9-4.6c2.3,0,4.6,0.9,6.5,2.4
			c0.1,0.1,0.2,0.1,0.3,0.1c0,0,0,0,0,0c0.1,0,0.2-0.1,0.3-0.2l0.6-0.8c0.1-0.2,0.1-0.4-0.1-0.6c-2.3-1.8-4.9-2.7-7.6-2.7
			c-4.6,0-7.9,2.7-7.9,6.4v0.1c0,3.5,2.5,5.1,7.5,7c4.3,1.8,6.7,2.9,6.7,5.8v0.1c0,2.8-2.7,4.8-6.3,4.8c-2.7,0-5.3-1-7.5-3
			c-0.1-0.1-0.2-0.1-0.3-0.1c-0.1,0-0.2,0-0.3,0.1l-0.7,0.8c-0.2,0.2-0.1,0.4,0,0.6c2.5,2.2,5.6,3.4,8.7,3.4c4.8,0,8.3-2.8,8.3-6.7
			v0C245.8,59.2,245.2,57.7,243.7,56.5z"/>
		<path class="st1" d="M196.7,31.8h-1c-0.2,0-0.4,0.2-0.4,0.4v15.2c-1.6-3.1-4.6-5.7-8.8-5.7c-6,0-10.6,5.6-10.6,13v0.2
			c0,7.4,4.6,13,10.6,13c4.2,0,7.3-2.6,8.8-5.7V67c0,0.2,0.2,0.4,0.4,0.4h1c0.2,0,0.4-0.2,0.4-0.4V32.2
			C197.1,31.9,196.9,31.8,196.7,31.8z M195.3,54.8c0,3-0.9,5.9-2.5,8c-1.6,2.1-3.9,3.3-6.3,3.3c-5.1,0-8.7-4.7-8.7-11.2v-0.2
			c0-6.6,3.6-11.2,8.7-11.2c5,0,8.8,4.9,8.8,11.2V54.8z"/>
		<path class="st1" d="M221.1,45.6c-1.8-2.6-4.3-4-7.4-4c-6,0-10.3,5.5-10.3,13.1v0.1c0,7.7,4.5,13,10.9,13c3.2,0,6.3-1.5,8.5-4.2
			c0.1-0.2,0.1-0.4-0.1-0.6l-0.7-0.6c-0.1-0.1-0.2-0.1-0.3-0.1c0,0,0,0,0,0c-0.1,0-0.2,0.1-0.3,0.1c-1.9,2.2-4.4,3.5-7,3.5
			c-5.1,0-8.7-4.3-9-10.6h17.8c0.2,0,0.4-0.2,0.4-0.4v-0.5C223.6,51.1,222.7,47.9,221.1,45.6z M205.4,53.7
			c0.4-6.1,3.8-10.3,8.3-10.3c3.6,0,7.6,3.2,7.9,10.3H205.4z"/>
	</g>
</g>
</svg>
