<?xml version="1.0" encoding="utf-8"?>
<!-- Generator: Adobe Illustrator 24.0.3, SVG Export Plug-In . SVG Version: 6.00 Build 0)  -->
<svg version="1.1" id="Layer_1" xmlns="http://www.w3.org/2000/svg" xmlns:xlink="http://www.w3.org/1999/xlink" x="0px" y="0px"
	 viewBox="0 0 108 162" style="enable-background:new 0 0 108 162;" xml:space="preserve">
<style type="text/css">
	.st0{fill:#FFFFFF;}
	.st1{fill:#6C757D;}
</style>
<g>
	<path class="st0" d="M33.2,10.9c13.5-8.6,31.6-8.3,45.1,0.2c8,5.1,14.3,12.9,17.3,21.8c4.1,12-1.4,23.1-14.5,25.2
		c-6,1-12.5,0-18.3-1.9c-5.5-1.8-10.7-4.6-16.7-3.5c-10.2,1.9-20.6,22.5-31.9,14.8C5,61.2,10,45.7,13,38
		C17.1,27.5,23.2,17.3,33.2,10.9z"/>
	<path class="st1" d="M51.4,45.4V11.3c0-0.8,0.7-1.5,1.5-1.5s1.5,0.7,1.5,1.5v34.1c0,0.8-0.7,1.5-1.5,1.5S51.4,46.2,51.4,45.4z
		 M59.6,49.1c0.5,0,0.9-0.2,1.2-0.6l16.5-21.4c0.2-0.3,0.4-0.7,0.3-1.1s-0.3-0.8-0.6-1c-0.3-0.2-0.6-0.3-0.9-0.3
		c-0.5,0-0.9,0.2-1.2,0.6L58.4,46.7c-0.5,0.7-0.4,1.6,0.3,2.1C59,49,59.3,49.1,59.6,49.1z M45.1,48.5c0.3,0.4,0.7,0.6,1.2,0.6
		c0.3,0,0.7-0.1,0.9-0.3c0.3-0.2,0.5-0.6,0.6-1c0.1-0.4-0.1-0.8-0.3-1.1L31,25.3c-0.3-0.4-0.7-0.6-1.2-0.6c-0.3,0-0.7,0.1-0.9,0.3
		c-0.7,0.5-0.8,1.4-0.3,2.1L45.1,48.5z M93.4,112.8c1.3,4.3-0.2,8.9-3.8,11.9c-12.1,10-22.8,17.3-38.9,22.9l-10,9.1
		c-0.6,0.5-1.3,0.8-2,0.8c0,0,0,0,0,0l0-0.8l-0.1,0.8c0,0-0.2,0-0.2,0c-0.7-0.1-1.4-0.4-1.9-1L7.8,124.7c-1.1-1.2-1-3,0.1-4.1
		l8.7-8.9c-2.3-8.9,0.2-17.9,2.3-25.7c2.2-7.8,4-14.6,1-19.6c-2.1-3.4-2.7-6.4-1.8-9c0.8-2.3,2.8-3.8,4.4-4.3
		c1.2-0.4,2.4-0.6,3.6-0.6c6.6,0,12.7,6.3,14.1,14.6c0.6,3.9,1.4,13.3,1.8,18.5c8.6-8.1,31.5-29.4,38.1-35c3.8-3.2,8.2-6.7,13.4-6.7
		c0.4,0,0.8,0,1.1,0.1c2.5,0.3,4.7,1.7,5.7,3.7c3.2,6.6-4.6,14.4-8.4,18.2c-3.2,3.2-8.9,8.6-12,11.6c2.8,1,4.8,3.2,5.5,6.2
		c0.6,2.5,0.1,5.3-1.2,7.9c3,0.8,5.2,3,5.9,6c0.7,2.9,0.1,6.2-1.9,9.3C90.6,107.8,92.6,110,93.4,112.8z M10,122.7l28.6,31.7
		l10.3-9.3c0.1-0.1,0.3-0.2,0.5-0.3c15.8-5.4,26.4-12.6,38.3-22.5c2.6-2.2,3.8-5.6,2.9-8.7c-0.7-2.5-2.6-4.2-5-4.5l-0.1,0
		c-0.5-0.1-1-0.4-1.2-0.9c-0.2-0.5-0.1-1.1,0.2-1.5c3.3-4,3-7.3,2.7-8.5c-0.6-2.2-2.3-3.7-4.8-4c-0.3,0-0.5-0.1-0.8-0.1
		c-0.6,0-1.1-0.3-1.3-0.8c-0.3-0.5-0.2-1.1,0.2-1.6c1.8-2.4,2.5-5.2,2-7.5c-0.6-2.4-2.4-4.1-4.9-4.4c-0.3,0-0.6-0.1-0.9-0.1
		c-0.6,0-1.2-0.4-1.4-0.9c-0.2-0.6-0.1-1.2,0.4-1.6c0.1-0.1,9.6-9.1,14.1-13.6C93,60.4,99.8,53.7,97.6,49c-0.5-1.1-1.8-1.8-3.3-2
		c-0.3,0-0.6,0-0.8,0c-4.1,0-7.9,2.9-11.4,6C74.2,59.6,42.1,89.7,41.8,90c-0.3,0.3-0.6,0.4-1,0.4c-0.2,0-0.4,0-0.5-0.1
		c-0.5-0.2-0.9-0.7-0.9-1.3c-0.2-2.8-1.3-16.6-2-21.3c-1.1-6.9-5.9-12.1-11.1-12.1c-0.9,0-1.7,0.1-2.6,0.4c-0.9,0.3-2,1.1-2.5,2.5
		c-0.6,1.7-0.1,3.8,1.5,6.4c3.7,6.1,1.6,13.8-0.6,22c-2.1,7.8-4.6,16.5-2.1,25c0.2,0.5,0,1.1-0.4,1.5L10,122.7z"/>
</g>
</svg>
