<?xml version="1.0" encoding="utf-8"?>
<!-- Generator: Adobe Illustrator 24.0.3, SVG Export Plug-In . SVG Version: 6.00 Build 0)  -->
<svg version="1.1" id="Layer_1" xmlns="http://www.w3.org/2000/svg" xmlns:xlink="http://www.w3.org/1999/xlink" x="0px" y="0px"
	 viewBox="0 0 108 162" style="enable-background:new 0 0 108 162;" xml:space="preserve">
<style type="text/css">
	.st0{fill:#6C757D;}
</style>
<path class="st0" d="M51.5,43.8V10.5C51.5,9.7,52.2,9,53,9c0.8,0,1.5,0.7,1.5,1.5v33.3c0,0.8-0.7,1.5-1.5,1.5
	C52.2,45.2,51.5,44.6,51.5,43.8z M59.5,47.3c0.5,0,0.9-0.2,1.2-0.6l16-20.9c0.2-0.3,0.3-0.7,0.3-1.1c-0.1-0.4-0.2-0.7-0.6-1
	c-0.3-0.2-0.6-0.3-0.9-0.3c-0.5,0-0.9,0.2-1.2,0.6L58.3,45c-0.5,0.6-0.4,1.6,0.3,2C58.8,47.2,59.2,47.3,59.5,47.3z M45.3,46.8
	c0.3,0.4,0.7,0.6,1.2,0.6c0.3,0,0.6-0.1,0.9-0.3c0.3-0.2,0.5-0.6,0.6-1s-0.1-0.8-0.3-1.1l-16-20.9c-0.3-0.4-0.7-0.6-1.2-0.6
	c-0.3,0-0.6,0.1-0.9,0.3c-0.6,0.5-0.8,1.4-0.3,2L45.3,46.8z M92.4,109.5c1.2,4.1-0.2,8.7-3.7,11.6c-11.8,9.7-22.3,16.9-38,22.3
	l-9.8,8.8c-0.5,0.5-1.2,0.8-2,0.8c0,0,0,0,0,0l0-0.8l-0.1,0.7c0,0-0.2,0-0.2,0c-0.7-0.1-1.4-0.4-1.8-0.9l-27.9-31
	c-1-1.1-1-2.9,0.1-4l8.5-8.7c-2.2-8.7,0.2-17.4,2.3-25.1c2.1-7.6,3.9-14.2,1-19.1c-2-3.3-2.6-6.2-1.7-8.7c0.8-2.3,2.7-3.7,4.3-4.2
	c1.1-0.4,2.3-0.6,3.5-0.6c6.5,0,12.4,6.1,13.7,14.3c0.6,3.8,1.4,12.9,1.8,18c8.4-7.9,30.7-28.7,37.1-34.2c3.7-3.2,8-6.5,13-6.5
	c0.4,0,0.7,0,1.1,0.1c2.5,0.2,4.6,1.6,5.6,3.6c3.1,6.5-4.5,14.1-8.2,17.7c-3.1,3.1-8.7,8.4-11.7,11.3c2.7,0.9,4.7,3.1,5.4,6.1
	c0.5,2.4,0.1,5.2-1.2,7.7c2.9,0.8,5,2.9,5.8,5.8c0.7,2.8,0.1,6-1.9,9C89.7,104.6,91.6,106.7,92.4,109.5z M11.1,119.1l27.9,31l10-9
	c0.1-0.1,0.3-0.2,0.5-0.3c15.4-5.3,25.7-12.3,37.3-21.9c2.6-2.1,3.7-5.5,2.8-8.5c-0.7-2.4-2.6-4.1-4.8-4.4l-0.1,0
	c-0.5-0.1-1-0.4-1.2-0.9c-0.2-0.5-0.1-1.1,0.2-1.5c3.2-3.9,2.9-7.1,2.6-8.3c-0.5-2.2-2.3-3.6-4.6-3.9c-0.3,0-0.5,0-0.8-0.1
	c-0.6,0-1.1-0.3-1.3-0.8c-0.2-0.5-0.2-1.1,0.2-1.5c1.7-2.3,2.5-5,2-7.3c-0.5-2.4-2.3-4-4.8-4.3c-0.3,0-0.6-0.1-0.8-0.1
	c-0.6,0-1.1-0.4-1.3-0.9c-0.2-0.6-0.1-1.2,0.4-1.6c0.1-0.1,9.3-8.8,13.8-13.3c3.2-3.2,9.9-9.8,7.6-14.4c-0.5-1-1.7-1.8-3.2-1.9
	c-0.3,0-0.5,0-0.8,0c-4,0-7.7,2.9-11.1,5.8c-7.6,6.5-38.9,35.9-39.2,36.2c-0.3,0.3-0.6,0.4-1,0.4c-0.2,0-0.4,0-0.5-0.1
	c-0.5-0.2-0.9-0.7-0.9-1.3c-0.2-2.7-1.2-16.2-2-20.8c-1.1-6.7-5.8-11.8-10.9-11.8c-0.9,0-1.7,0.1-2.5,0.4c-0.9,0.3-2,1.1-2.5,2.4
	c-0.6,1.6-0.1,3.7,1.4,6.2c3.6,5.9,1.6,13.4-0.6,21.4c-2.1,7.6-4.5,16.1-2.1,24.3c0.1,0.5,0,1.1-0.4,1.4L11.1,119.1z"/>
</svg>
